<svg width="32" height="32" viewBox="0 0 32 32" fill="none" xmlns="http://www.w3.org/2000/svg">
<path d="M12.72 21.2264V14.1064L10.72 16.3331" stroke="#050505" stroke-linecap="round" stroke-linejoin="round"/>
<path d="M13.36 5.9598L16 2.6665" stroke="#050505" stroke-linecap="round" stroke-linejoin="round"/>
<path d="M6.54663 10.3998C5.06663 12.3732 4.14661 14.8132 4.14661 17.4798C4.14661 24.0265 9.45329 29.3332 16 29.3332C22.5466 29.3332 27.8533 24.0265 27.8533 17.4798C27.8533 10.9332 22.5466 5.62646 16 5.62646C15.0933 5.62646 14.2133 5.74653 13.3599 5.94653" stroke="#050505" stroke-linecap="round" stroke-linejoin="round"/>
<path d="M18.6667 14.1064C20.1333 14.1064 21.3333 15.3064 21.3333 16.7731V18.5731C21.3333 20.0397 20.1333 21.2397 18.6667 21.2397C17.2 21.2397 16 20.0397 16 18.5731V16.7731C16 15.2931 17.2 14.1064 18.6667 14.1064Z" stroke="#050505" stroke-linecap="round" stroke-linejoin="round"/>
</svg>
