<svg width="24" height="24" viewBox="0 0 24 24" fill="none" xmlns="http://www.w3.org/2000/svg">
<path d="M10.15 4.89V19.11C10.15 19.7297 10.017 20.0326 9.84219 20.1973C9.65974 20.3691 9.31726 20.5 8.64 20.5H5.01C4.33274 20.5 3.99026 20.3691 3.80781 20.1973C3.63301 20.0326 3.5 19.7297 3.5 19.11V4.89C3.5 4.27031 3.63301 3.96737 3.80781 3.80273C3.99026 3.63089 4.33274 3.5 5.01 3.5H8.64C9.31726 3.5 9.65974 3.63089 9.84219 3.80273C10.017 3.96737 10.15 4.27031 10.15 4.89Z" fill="white" stroke="white"/>
<path d="M21.0001 19.11V4.89C21.0001 3.54 20.4301 3 18.9901 3H15.3601C13.9301 3 13.3501 3.54 13.3501 4.89V19.11C13.3501 20.46 13.9201 21 15.3601 21H18.9901C20.4301 21 21.0001 20.46 21.0001 19.11Z" fill="white"/>
</svg>
