<svg width="48" height="12" viewBox="0 0 48 12" fill="none" xmlns="http://www.w3.org/2000/svg">
<path d="M48 9.77445C48 8.54554 47.0038 7.54932 45.7749 7.54932L43.5497 7.54932V9.77445C43.5497 11.0034 44.546 11.9996 45.7749 11.9996C47.0038 11.9996 48 11.0034 48 9.77445Z" fill="#97DE00"/>
<path d="M0 7.88844V1.51087C0 1.20277 0.0616191 1.00764 0.184857 0.925484C0.318365 0.843325 0.539167 0.802246 0.847263 0.802246H2.52638V3.5597H6.00786V0.802246H8.53425V7.08739C8.53425 7.40576 8.4829 7.62143 8.3802 7.73439C8.2775 7.83709 8.04129 7.88844 7.67158 7.88844H6.00786V4.86911H2.52638V7.88844H0Z" fill="#060606"/>
<path d="M12.9816 7.96547C12.2627 7.96547 11.6825 7.93979 11.2409 7.88844C10.7993 7.84736 10.4552 7.76007 10.2087 7.62656C9.97253 7.49305 9.81335 7.30306 9.73119 7.05658C9.64903 6.81011 9.60795 6.49174 9.60795 6.10149C9.60795 5.57773 9.6593 5.18234 9.762 4.91532C9.8647 4.63803 10.0444 4.44804 10.3012 4.34534C10.5579 4.24265 10.902 4.1913 11.3333 4.1913C11.59 4.1913 11.8827 4.19643 12.2114 4.2067C12.5503 4.2067 12.8789 4.21184 13.1973 4.22211C13.5259 4.23238 13.8083 4.25292 14.0445 4.28373C14.291 4.30426 14.4605 4.3248 14.5529 4.34534C14.5529 4.02698 14.5221 3.77537 14.4605 3.59051C14.4091 3.40565 14.3218 3.26701 14.1986 3.17458C14.0753 3.07188 13.911 3.00513 13.7056 2.97432C13.5002 2.94351 13.2486 2.9281 12.9508 2.9281C12.5913 2.9281 12.2319 2.93324 11.8725 2.94351C11.5233 2.95378 11.1792 2.97432 10.8403 3.00513C10.5117 3.03594 10.2087 3.07188 9.93145 3.11296V2.68163C9.93145 2.40434 9.99307 2.19895 10.1163 2.06544C10.2395 1.93193 10.409 1.84464 10.6247 1.80356C10.8609 1.75221 11.2101 1.71626 11.6722 1.69572C12.1446 1.67518 12.653 1.66491 13.1973 1.66491C13.8853 1.66491 14.4605 1.70086 14.9226 1.77275C15.395 1.84464 15.7647 1.97301 16.0317 2.15787C16.2988 2.34272 16.4888 2.62001 16.6017 2.98972C16.7147 3.34917 16.7712 3.83185 16.7712 4.43777V7.50332C16.6069 7.65737 16.1961 7.77547 15.5388 7.85763C14.8918 7.92952 14.0394 7.96547 12.9816 7.96547ZM12.9662 7.01037C13.2538 7.01037 13.4951 7.00524 13.6902 6.99497C13.8956 6.97443 14.0702 6.94875 14.214 6.91794C14.3578 6.88713 14.4707 6.85119 14.5529 6.81011V5.08477C14.4399 5.05396 14.2807 5.02829 14.0753 5.00775C13.8802 4.98721 13.6799 4.97181 13.4746 4.96154C13.2692 4.95127 13.11 4.94613 12.997 4.94613C12.7505 4.94613 12.5503 4.96667 12.3962 5.00775C12.2422 5.04883 12.1292 5.14126 12.0573 5.28504C11.9957 5.42881 11.9649 5.64962 11.9649 5.94744C11.9649 6.20419 11.9906 6.41472 12.0419 6.57904C12.0933 6.73308 12.1908 6.84605 12.3346 6.91794C12.4784 6.97956 12.6889 7.01037 12.9662 7.01037Z" fill="#060606"/>
<path d="M18.5113 7.88844C18.1621 7.88844 17.931 7.83709 17.818 7.73439C17.7153 7.6317 17.664 7.40062 17.664 7.04118V2.12706C17.818 2.07571 18.0183 2.02949 18.2648 1.98841C18.5215 1.93706 18.7988 1.89085 19.0966 1.84977C19.3945 1.80869 19.6974 1.77788 20.0055 1.75734C20.3239 1.72653 20.6166 1.71113 20.8836 1.71113C21.2944 1.71113 21.6487 1.74194 21.9465 1.80356C22.2444 1.86518 22.496 1.98328 22.7014 2.15787C22.917 2.33245 23.0967 2.59433 23.2405 2.94351L22.917 2.9281C23.0095 2.66109 23.143 2.44542 23.3176 2.2811C23.4921 2.11679 23.6975 1.99868 23.9337 1.92679C24.1699 1.84464 24.401 1.78815 24.627 1.75734C24.8529 1.72653 25.0583 1.71113 25.2431 1.71113C25.9518 1.71113 26.5115 1.77275 26.9223 1.89598C27.3331 2.00895 27.6258 2.22462 27.8003 2.54299C27.9852 2.85108 28.0776 3.28755 28.0776 3.85239V7.1182C28.0776 7.45711 28.016 7.67278 27.8928 7.7652C27.7798 7.84736 27.5641 7.88844 27.2458 7.88844H25.7823C25.7823 7.20036 25.7823 6.51742 25.7823 5.83961C25.7823 5.15153 25.7823 4.46345 25.7823 3.77537C25.772 3.37484 25.6899 3.11296 25.5358 2.98972C25.3921 2.86649 25.1713 2.80487 24.8734 2.80487C24.7297 2.80487 24.591 2.82541 24.4575 2.86649C24.3343 2.90757 24.2316 2.96405 24.1494 3.03594C24.0672 3.10783 24.0262 3.19512 24.0262 3.29782V7.88844H21.7155V3.60591C21.7155 3.32863 21.6333 3.1335 21.469 3.02053C21.3149 2.8973 21.0941 2.83568 20.8066 2.83568C20.6423 2.83568 20.4985 2.85108 20.3752 2.88189C20.252 2.90243 20.1544 2.93837 20.0825 2.98972C20.0107 3.0308 19.9696 3.09756 19.9593 3.18999V7.88844H18.5113Z" fill="#060606"/>
<path d="M31.8605 7.95006C31.6141 7.95006 31.3522 7.94493 31.0749 7.93466C30.7976 7.92439 30.5203 7.90385 30.243 7.87304C29.976 7.84223 29.7295 7.79601 29.5036 7.73439C29.3187 7.69332 29.1647 7.64197 29.0415 7.58035C28.9285 7.50846 28.8412 7.38008 28.7796 7.19523C28.7282 7.0001 28.7026 6.69714 28.7026 6.28635C29.0209 6.39931 29.3496 6.49174 29.6885 6.56363C30.0274 6.62525 30.356 6.67147 30.6744 6.70227C31.003 6.72281 31.306 6.73308 31.5832 6.73308C31.7784 6.73308 31.9889 6.73308 32.2148 6.73308C32.451 6.72281 32.677 6.69714 32.8927 6.65606C33.1083 6.60471 33.288 6.52769 33.4318 6.42499C33.5756 6.31202 33.6475 6.15797 33.6475 5.96285C33.6475 5.72664 33.5859 5.57259 33.4626 5.5007C33.3394 5.42881 33.1751 5.39287 32.9697 5.39287H31.2135C30.7411 5.39287 30.3201 5.36719 29.9503 5.31585C29.5909 5.2645 29.3033 5.12585 29.0877 4.89992C28.8823 4.66371 28.7796 4.26832 28.7796 3.71375C28.7796 3.10783 28.9285 2.66109 29.2263 2.37353C29.5344 2.07571 29.9709 1.88058 30.5357 1.78815C31.1006 1.69572 31.7784 1.64951 32.5692 1.64951C32.8567 1.64951 33.1905 1.65464 33.5705 1.66491C33.9607 1.67518 34.2996 1.70086 34.5872 1.74194C34.9055 1.77275 35.152 1.8241 35.3266 1.89598C35.5115 1.9576 35.645 2.0603 35.7271 2.20408C35.8093 2.33759 35.8504 2.54812 35.8504 2.83568V3.26701C35.7887 3.16431 35.6296 3.08729 35.3728 3.03594C35.1263 2.97432 34.8234 2.93324 34.4639 2.9127C34.1148 2.89216 33.745 2.88189 33.3548 2.88189C32.9748 2.88189 32.6205 2.88189 32.2919 2.88189C32.0659 2.88189 31.8554 2.8973 31.6603 2.9281C31.4754 2.94864 31.3265 3.01026 31.2135 3.11296C31.1006 3.20539 31.0441 3.35944 31.0441 3.57511C31.0441 3.73942 31.08 3.86266 31.1519 3.94482C31.2238 4.01671 31.3214 4.06292 31.4446 4.08346C31.5678 4.104 31.7065 4.11427 31.8605 4.11427H33.8169C34.2483 4.11427 34.6283 4.15535 34.9569 4.23751C35.2855 4.3094 35.5371 4.47372 35.7117 4.73046C35.8863 4.97694 35.9736 5.36719 35.9736 5.90123C35.9736 6.51742 35.799 6.96929 35.4498 7.25685C35.1007 7.5444 34.618 7.7344 34.0018 7.82682C33.3856 7.90898 32.6718 7.95006 31.8605 7.95006Z" fill="#060606"/>
<path d="M39.8306 7.96547C39.1118 7.96547 38.5315 7.93979 38.0899 7.88844C37.6483 7.84736 37.3043 7.76007 37.0578 7.62656C36.8216 7.49305 36.6624 7.30306 36.5802 7.05658C36.4981 6.81011 36.457 6.49174 36.457 6.10149C36.457 5.57773 36.5083 5.18234 36.611 4.91532C36.7137 4.63803 36.8935 4.44804 37.1502 4.34534C37.407 4.24265 37.751 4.1913 38.1823 4.1913C38.4391 4.1913 38.7318 4.19643 39.0604 4.2067C39.3993 4.2067 39.7279 4.21184 40.0463 4.22211C40.3749 4.23238 40.6574 4.25292 40.8936 4.28373C41.14 4.30426 41.3095 4.3248 41.4019 4.34534C41.4019 4.02698 41.3711 3.77537 41.3095 3.59051C41.2581 3.40565 41.1709 3.26701 41.0476 3.17458C40.9244 3.07188 40.7601 3.00513 40.5547 2.97432C40.3493 2.94351 40.0977 2.9281 39.7998 2.9281C39.4404 2.9281 39.0809 2.93324 38.7215 2.94351C38.3723 2.95378 38.0283 2.97432 37.6894 3.00513C37.3607 3.03594 37.0578 3.07188 36.7805 3.11296V2.68163C36.7805 2.40434 36.8421 2.19895 36.9654 2.06544C37.0886 1.93193 37.258 1.84464 37.4737 1.80356C37.7099 1.75221 38.0591 1.71626 38.5212 1.69572C38.9936 1.67518 39.502 1.66491 40.0463 1.66491C40.7344 1.66491 41.3095 1.70086 41.7716 1.77275C42.2441 1.84464 42.6138 1.97301 42.8808 2.15787C43.1478 2.34272 43.3378 2.62001 43.4508 2.98972C43.5637 3.34917 43.6202 3.83185 43.6202 4.43777V7.50332C43.4559 7.65737 43.0451 7.77547 42.3878 7.85763C41.7408 7.92952 40.8884 7.96547 39.8306 7.96547ZM39.8152 7.01037C40.1028 7.01037 40.3441 7.00524 40.5393 6.99497C40.7447 6.97443 40.9192 6.94875 41.063 6.91794C41.2068 6.88713 41.3198 6.85119 41.4019 6.81011V5.08477C41.289 5.05396 41.1298 5.02829 40.9244 5.00775C40.7293 4.98721 40.529 4.97181 40.3236 4.96154C40.1182 4.95127 39.959 4.94613 39.846 4.94613C39.5996 4.94613 39.3993 4.96667 39.2453 5.00775C39.0912 5.04883 38.9782 5.14126 38.9064 5.28504C38.8447 5.42881 38.8139 5.64962 38.8139 5.94744C38.8139 6.20419 38.8396 6.41472 38.8909 6.57904C38.9423 6.73308 39.0399 6.84605 39.1836 6.91794C39.3274 6.97956 39.5379 7.01037 39.8152 7.01037Z" fill="#060606"/>
</svg>
